PathFileType	4	(X/Y/Z)	./resultDataOpenSim/trcMotMarkerGrf/sub06/qtm-14-02.trc
DataRate	CameraRate	NumFrames	NumMarkers	Units	OrigDataRate	OrigDataStartFrame	OrigNumFrames
250.000000	250.000000	9	24	m	250.000000	142	565
Frame#	Time	L.Toe.Tip			R.Toe.Tip			L.Ankle.Lat			R.Ankle.Lat			L.Ankle.Med			R.Ankle.Med			L.Heel			R.Heel			L.Knee.Lat			R.Knee.Lat			L.Knee.Med			R.Knee.Med			L.Thigh.Upper			R.Thigh.Upper			L.ASIS			R.ASIS			V.Sacral			L.Acromium			R.Acromium			C7			L.Elbow			R.Elbow			L.Wrist.Lat			R.Wrist.Lat
		X1	Y1	Z1	X2	Y2	Z2	X3	Y3	Z3	X4	Y4	Z4	X5	Y5	Z5	X6	Y6	Z6	X7	Y7	Z7	X8	Y8	Z8	X9	Y9	Z9	X10	Y10	Z10	X11	Y11	Z11	X12	Y12	Z12	X13	Y13	Z13	X14	Y14	Z14	X15	Y15	Z15	X16	Y16	Z16	X17	Y17	Z17	X18	Y18	Z18	X19	Y19	Z19	X20	Y20	Z20	X21	Y21	Z21	X22	Y22	Z22	X23	Y23	Z23	X24	Y24	Z24

142	0.564	-0.078207378	0.13954758	-0.050842624	-0.75053312	0.034851829	0.092629418	-0.20119807	0.10671215	-0.076545521	-0.87972865	0.076459862	0.1039321	-0.2089059	0.12032704	0.0081398772	-0.85064292	0.090022461	0.019014594	-0.24666648	0.040884384	-0.030327418	-0.9346679	0.060467245	0.038055303	-0.34327871	0.44443839	-0.077878493	-0.70075911	0.42101147	0.14707579	-0.37180678	0.43100205	0.046643513	-0.72216899	0.42518512	0.014731144	-0.53074118	0.78392929	-0.13197841	-0.60867878	0.77278364	0.21210902	-0.47329	0.82941804	-0.074685325	-0.49755603	0.82380313	0.17219679	-0.68002566	0.90429208	0.049809093	-0.55398212	1.3130914	-0.1451599	-0.53971883	1.3076729	0.21836163	-0.62858895	1.3439473	0.03692275	-0.64979206	1.0122077	-0.20155594	-0.53683373	0.99638003	0.33240843	-0.54131524	0.79596681	-0.23453282	-0.30235945	0.91945126	0.29486222
143	0.568	-0.066706652	0.14195878	-0.049895057	-0.75047187	0.034834825	0.092717908	-0.18938715	0.10785291	-0.076022601	-0.8788973	0.077589642	0.10428456	-0.19742296	0.12149224	0.0086509526	-0.85001496	0.090842838	0.019327487	-0.23428411	0.04145878	-0.030050671	-0.93433535	0.062125882	0.0384852	-0.33503092	0.44388628	-0.077384293	-0.69667503	0.42035103	0.14722925	-0.36461897	0.42978945	0.04701086	-0.7176054	0.42448996	0.014791623	-0.52353006	0.78215872	-0.13187384	-0.60270683	0.7712851	0.21176039	-0.46595617	0.82738846	-0.074484689	-0.49119346	0.82247731	0.17215938	-0.67483752	0.90304735	0.049682686	-0.54744006	1.3114179	-0.14546528	-0.5333204	1.3058991	0.21811604	-0.62210817	1.3424175	0.036618019	-0.64341692	1.0107526	-0.20145479	-0.52853593	0.99468207	0.33246338	-0.53675801	0.79388987	-0.23526575	-0.29398369	0.91960253	0.2937961
144	0.572	-0.055766397	0.14386174	-0.049024647	-0.75039906	0.034827673	0.092824345	-0.17821668	0.10870014	-0.07546649	-0.87819753	0.078756553	0.10468725	-0.18660195	0.12240118	0.0091578832	-0.84938206	0.091764079	0.019683181	-0.22262185	0.041853404	-0.029647579	-0.93388818	0.063931665	0.038865188	-0.32676878	0.4433728	-0.076956911	-0.69246187	0.41968463	0.14740058	-0.35727468	0.42873768	0.047325476	-0.71292098	0.42376791	0.014878194	-0.51625257	0.78048015	-0.13178191	-0.59629371	0.76946544	0.21129926	-0.45859299	0.82545555	-0.074283915	-0.48468029	0.82126182	0.17220069	-0.66945401	0.90174798	0.049373209	-0.54086859	1.3097943	-0.14577942	-0.52699265	1.3041743	0.21784724	-0.61557503	1.340903	0.036304913	-0.63697372	1.0093471	-0.20136342	-0.52034542	0.99305473	0.33246029	-0.53224234	0.79183342	-0.23603553	-0.28571623	0.91969198	0.29273729
145	0.576	-0.0454302	0.14522959	-0.048246474	-0.75030854	0.034833926	0.092941583	-0.167689	0.10922363	-0.074885225	-0.87767609	0.079958062	0.10513436	-0.17641102	0.12300179	0.0096808032	-0.84870018	0.09279175	0.020060516	-0.211688	0.042027143	-0.029147123	-0.93335619	0.065890261	0.039271086	-0.31851582	0.44286696	-0.076608453	-0.6881216	0.41901834	0.14758263	-0.34975239	0.42784968	0.047603062	-0.70809342	0.42302936	0.01499319	-0.50885591	0.77889974	-0.13171293	-0.58943971	0.76736333	0.21076948	-0.45120002	0.82362398	-0.074079876	-0.47814228	0.82002498	0.17234085	-0.66384999	0.90040444	0.048899562	-0.53426403	1.3082195	-0.14610106	-0.52072195	1.3025001	0.21755236	-0.60900622	1.3394176	0.035975525	-0.63047334	1.0080025	-0.20130054	-0.51228946	0.99148865	0.33240641	-0.52783696	0.78980499	-0.23689337	-0.27755974	0.91971523	0.29169299
146	0.58	-0.035720221	0.14604343	-0.047546362	-0.75019834	0.034857661	0.093062782	-0.15780208	0.10940226	-0.074276233	-0.87719078	0.081232624	0.10563505	-0.16683506	0.12323899	0.010213955	-0.84792526	0.093920017	0.020464562	-0.20150278	0.041955803	-0.028575144	-0.9328303	0.068018333	0.039876058	-0.31024023	0.44237096	-0.076289321	-0.68365391	0.41835201	0.14777305	-0.34203226	0.42712639	0.047862172	-0.70310682	0.42228554	0.01513538	-0.50131131	0.77743361	-0.13168394	-0.58245028	0.76533388	0.21025577	-0.44377556	0.82189316	-0.073871634	-0.47169178	0.81860983	0.17258323	-0.6580033	0.89902671	0.048280516	-0.52761941	1.3066976	-0.14643732	-0.51442417	1.300889	0.21722399	-0.60241243	1.3379633	0.035626176	-0.62391508	1.0067304	-0.20126907	-0.5043459	0.98997704	0.33230206	-0.52344364	0.78782346	-0.23780745	-0.26950412	0.91966739	0.29066702
147	0.584	-0.026633186	0.14629601	-0.046887577	-0.75007487	0.034896889	0.093172498	-0.14856003	0.10922608	-0.073640706	-0.87654986	0.082624867	0.10620058	-0.15788928	0.12306321	0.01073409	-0.8470506	0.095145163	0.020924581	-0.19208992	0.041628279	-0.027962601	-0.93236948	0.070321075	0.040782241	-0.3019615	0.44188247	-0.07596159	-0.67905338	0.4176899	0.14797886	-0.33410446	0.42656846	0.048111562	-0.69797385	0.42154783	0.015302988	-0.49364883	0.77609503	-0.13171724	-0.57568905	0.76373843	0.20975797	-0.43631694	0.82026282	-0.073658093	-0.46527047	0.81693418	0.17292747	-0.65189345	0.89762487	0.047535303	-0.52092902	1.3052324	-0.14679608	-0.50800415	1.2993531	0.21686039	-0.59579365	1.3365418	0.035251187	-0.61731203	1.0055307	-0.20126414	-0.49648624	0.98852358	0.33214194	-0.5189485	0.78590675	-0.2387263	-0.26154033	0.91954428	0.28965283
148	0.588	-0.018159038	0.14598246	-0.046238736	-0.74994646	0.034939706	0.093255666	-0.13996675	0.10869652	-0.07298882	-0.87568415	0.084145047	0.10682742	-0.1495736	0.1224668	0.011237926	-0.84609548	0.096475244	0.021465696	-0.18346369	0.041039866	-0.027338405	-0.93188774	0.072772581	0.041843247	-0.29370747	0.44138977	-0.075635182	-0.67431695	0.41704618	0.14820565	-0.32597786	0.42617607	0.048341106	-0.6927187	0.42082367	0.015496993	-0.48594477	0.77488048	-0.13182082	-0.56925101	0.76258353	0.20915826	-0.42882234	0.81873536	-0.073440266	-0.45872787	0.8150735	0.17332323	-0.64550015	0.89620915	0.046683471	-0.51419133	1.3038237	-0.14718113	-0.50144312	1.2978915	0.21646473	-0.58913917	1.335159	0.034843895	-0.61069037	1.0043933	-0.20128075	-0.48870587	0.98713928	0.33192004	-0.51431776	0.78406872	-0.23962605	-0.25366367	0.91934523	0.28863986
149	0.592	-0.010288245	0.1451	-0.045585811	-0.74980919	0.034973981	0.09331832	-0.13201645	0.10782359	-0.072330663	-0.87464293	0.085776295	0.10749669	-0.14184827	0.12149859	0.011753671	-0.84508428	0.097915105	0.02209215	-0.17562525	0.040189156	-0.026707732	-0.93122565	0.075345711	0.042803677	-0.28547516	0.44088658	-0.075343608	-0.66943306	0.41643288	0.14845158	-0.31767823	0.42594738	0.048531666	-0.68734825	0.42011339	0.015715636	-0.47825722	0.77377669	-0.13198641	-0.56300244	0.76164482	0.2083728	-0.42129147	0.81731594	-0.073224087	-0.45200865	0.81324839	0.17366737	-0.63880239	0.89478987	0.045744546	-0.50740202	1.3024701	-0.14759338	-0.49479741	1.2964969	0.21604358	-0.58243692	1.3338233	0.034403776	-0.60406523	1.0033085	-0.20131783	-0.48101795	0.98583545	0.33163098	-0.50958114	0.78231556	-0.24051218	-0.2458732	0.91907495	0.28762616
150	0.596	-0.0030083144	0.14365184	-0.044929752	-0.74964842	0.034998167	0.093382044	-0.1246973	0.10661896	-0.071669272	-0.87349253	0.08750218	0.1081922	-0.134663	0.12022466	0.012316909	-0.84402941	0.099454185	0.022789033	-0.16856719	0.03908345	-0.026051274	-0.930333	0.078050074	0.043605569	-0.2772455	0.44038538	-0.075105968	-0.66438225	0.41585297	0.14871019	-0.30923559	0.42587466	0.048669703	-0.68186162	0.41941592	0.015947495	-0.47058347	0.77277498	-0.13220449	-0.55672205	0.7607499	0.20748301	-0.4137201	0.81600924	-0.073018967	-0.44519147	0.81166124	0.17389651	-0.63177813	0.89337735	0.044737785	-0.500551	1.3011703	-0.14803245	-0.48812482	1.2951676	0.21560869	-0.57568375	1.332542	0.033937471	-0.59740263	1.0022734	-0.20137065	-0.47343312	0.98461469	0.33127354	-0.50477253	0.78064343	-0.24139515	-0.23816971	0.91873854	0.28661823
